<svg width="305" height="333" viewBox="0 0 305 333" fill="none" xmlns="http://www.w3.org/2000/svg">
<g clip-path="url(#clip0)">
<mask id="mask0" mask-type="alpha" maskUnits="userSpaceOnUse" x="1" y="29" width="304" height="304">
<path d="M152.922 333C236.757 333 304.719 265.061 304.719 181.253C304.719 97.4457 236.757 29.5063 152.922 29.5063C69.0863 29.5063 1.12439 97.4457 1.12439 181.253C1.12439 265.061 69.0863 333 152.922 333Z" fill="white"/>
</mask>
<g mask="url(#mask0)">
<path d="M152.922 333C236.757 333 304.719 265.061 304.719 181.253C304.719 97.4457 236.757 29.5063 152.922 29.5063C69.0863 29.5063 1.12439 97.4457 1.12439 181.253C1.12439 265.061 69.0863 333 152.922 333Z" fill="white" fill-opacity="0.2"/>
<path d="M305.345 29.5063H1.12439V333H305.345V29.5063Z" fill="white" fill-opacity="0.2"/>
</g>
<mask id="mask1" mask-type="alpha" maskUnits="userSpaceOnUse" x="-15" y="-22" width="335" height="355">
<path d="M-14.0553 181.253V-21.0759H319.899V181.253H304.719C304.719 265.061 236.757 333 152.922 333C69.0864 333 1.12443 265.061 1.12443 181.253H-14.0553Z" fill="white"/>
</mask>
<g mask="url(#mask1)">
<mask id="mask2" mask-type="alpha" maskUnits="userSpaceOnUse" x="26" y="24" width="254" height="309">
<path d="M152.922 24.4481C192.045 24.4481 223.76 56.1531 223.76 95.2633L223.762 103.061C230.94 104.265 236.41 110.507 236.41 118.025V135.729C236.41 143.383 230.742 149.713 223.373 150.754C220.76 175.799 205.086 196.961 183.282 207.316L183.281 230.571H188.341C238.642 230.571 279.419 271.335 279.419 321.619V333H26.424V321.619C26.424 271.335 67.2011 230.571 117.502 230.571H122.562L122.562 207.317C100.757 196.962 85.0838 175.799 82.469 150.754C75.1013 149.713 69.4332 143.383 69.4332 135.729V118.025C69.4332 110.506 74.9037 104.264 82.083 103.06L82.0829 95.2633C82.0829 56.1531 113.799 24.4481 152.922 24.4481Z" fill="white"/>
</mask>
<g mask="url(#mask2)">
<path d="M152.922 24.4481C192.045 24.4481 223.76 56.1531 223.76 95.2633L223.762 103.061C230.94 104.265 236.41 110.507 236.41 118.025V135.729C236.41 143.383 230.742 149.713 223.373 150.754C220.76 175.799 205.086 196.961 183.282 207.316L183.281 230.571H188.341C238.642 230.571 279.419 271.335 279.419 321.619V333H26.424V321.619C26.424 271.335 67.2011 230.571 117.502 230.571H122.562L122.562 207.317C100.757 196.962 85.0838 175.799 82.469 150.754C75.1013 149.713 69.4332 143.383 69.4332 135.729V118.025C69.4332 110.506 74.9037 104.264 82.083 103.06L82.0829 95.2633C82.0829 56.1531 113.799 24.4481 152.922 24.4481Z" fill="#D0C6AC"/>
<path d="M321 24.4481H-14.0553V334.061H321V24.4481Z" fill="#FFDBB4"/>
<path fill-rule="evenodd" clip-rule="evenodd" d="M82.083 143.316C82.083 182.427 113.799 214.132 152.922 214.132C192.045 214.132 223.76 182.427 223.76 143.316V153.433C223.76 192.543 192.045 224.248 152.922 224.248C113.799 224.248 82.083 192.543 82.083 153.433V143.316Z" fill="black" fill-opacity="0.1"/>
</g>
<mask id="mask3" mask-type="alpha" maskUnits="userSpaceOnUse" x="26" y="210" width="254" height="123">
<path d="M183.283 210.428C206.179 212.989 223.76 220.029 223.76 238.256L223.752 237.708C256.463 251.52 279.419 283.889 279.419 321.618V333H26.424V321.618C26.424 283.889 49.3801 251.52 82.0911 237.708C82.4379 219.887 99.8959 212.963 122.562 210.428L122.562 234.365C122.562 251.126 136.155 264.714 152.922 264.714C169.689 264.714 183.281 251.126 183.281 234.365L183.283 210.428Z" fill="white"/>
</mask>
<g mask="url(#mask3)">
<path d="M183.283 210.428C206.179 212.989 223.76 220.029 223.76 238.256L223.752 237.708C256.463 251.52 279.419 283.889 279.419 321.618V333H26.424V321.618C26.424 283.889 49.3801 251.52 82.0911 237.708C82.4379 219.887 99.8959 212.963 122.562 210.428L122.562 234.365C122.562 251.126 136.155 264.714 152.922 264.714C169.689 264.714 183.281 251.126 183.281 234.365L183.283 210.428Z" fill="#B7C1DB"/>
<path d="M321.151 193.899H-14.0553V333H321.151V193.899Z" fill="#293347"/>
<path fill-rule="evenodd" clip-rule="evenodd" d="M114.972 271.971L114.972 333H106.117L106.116 267.432C108.904 269.089 111.868 270.607 114.972 271.971ZM199.728 267.432L199.726 318.458C199.726 320.902 197.743 322.884 195.298 322.884C192.853 322.884 190.871 320.902 190.871 318.458L190.873 271.971C193.976 270.607 196.94 269.088 199.728 267.432Z" fill="#F4F4F4"/>
<path fill-rule="evenodd" clip-rule="evenodd" d="M204.832 209.989C223.873 213.588 237.043 220.761 237.043 234.754C237.043 259.681 195.251 279.889 152.922 279.889C110.593 279.889 68.8007 259.681 68.8007 234.754C68.8007 220.761 81.9699 213.588 101.011 209.989C89.517 214.224 82.0829 221.346 82.0829 233.197C82.0829 258.984 117.276 279.889 152.922 279.889C188.567 279.889 223.76 258.984 223.76 233.197C223.76 221.593 216.634 214.523 205.546 210.257L204.832 209.989Z" fill="black" fill-opacity="0.16"/>
</g>
<mask id="mask4" mask-type="alpha" maskUnits="userSpaceOnUse" x="129" y="164" width="48" height="25">
<path d="M129.036 167.505C130.374 179.508 140.558 188.841 152.922 188.841C165.324 188.841 175.532 179.45 176.819 167.394C176.923 166.423 175.839 164.814 174.48 164.814C155.64 164.814 141.205 164.814 131.527 164.814C130.16 164.814 128.902 166.304 129.036 167.505Z" fill="white"/>
</mask>
<g mask="url(#mask4)">
<path d="M129.036 167.505C130.374 179.508 140.558 188.841 152.922 188.841C165.324 188.841 175.532 179.45 176.819 167.394C176.923 166.423 175.839 164.814 174.48 164.814C155.64 164.814 141.205 164.814 131.527 164.814C130.16 164.814 128.902 166.304 129.036 167.505Z" fill="black" fill-opacity="0.7"/>
<path fill-rule="evenodd" clip-rule="evenodd" d="M140.272 150.904H166.836C170.33 150.904 173.161 153.735 173.161 157.227V164.814C173.161 168.306 170.33 171.137 166.836 171.137H140.272C136.779 171.137 133.947 168.306 133.947 164.814V157.227C133.947 153.735 136.779 150.904 140.272 150.904Z" fill="white"/>
<path d="M146.597 206.544C154.282 206.544 160.512 200.317 160.512 192.634C160.512 184.952 154.282 178.724 146.597 178.724C138.912 178.724 132.682 184.952 132.682 192.634C132.682 200.317 138.912 206.544 146.597 206.544Z" fill="#FF4F6D"/>
<path d="M159.247 206.544C166.931 206.544 173.161 200.317 173.161 192.634C173.161 184.952 166.931 178.724 159.247 178.724C151.562 178.724 145.332 184.952 145.332 192.634C145.332 200.317 151.562 206.544 159.247 206.544Z" fill="#FF4F6D"/>
</g>
<path fill-rule="evenodd" clip-rule="evenodd" d="M137.742 143.316C137.742 148.904 144.538 153.433 152.922 153.433C161.305 153.433 168.101 148.904 168.101 143.316" fill="black" fill-opacity="0.16"/>
<path fill-rule="evenodd" clip-rule="evenodd" d="M102.525 121.12C104.861 116.316 110.12 112.967 116.234 112.967C122.326 112.967 127.57 116.293 129.918 121.069C130.616 122.488 129.623 123.649 128.622 122.789C125.522 120.124 121.118 118.46 116.234 118.46C111.503 118.46 107.223 120.022 104.141 122.542C103.014 123.463 101.842 122.525 102.525 121.12Z" fill="black" fill-opacity="0.6"/>
<path fill-rule="evenodd" clip-rule="evenodd" d="M175.894 121.12C178.23 116.316 183.489 112.967 189.603 112.967C195.695 112.967 200.939 116.293 203.287 121.069C203.985 122.488 202.992 123.649 201.991 122.789C198.89 120.124 194.487 118.46 189.603 118.46C184.871 118.46 180.591 120.022 177.51 122.542C176.383 123.463 175.211 122.525 175.894 121.12Z" fill="black" fill-opacity="0.6"/>
<path fill-rule="evenodd" clip-rule="evenodd" d="M115.665 90.3927C108.319 90.732 96.4432 96.0679 96.7492 103.473C96.7593 103.715 97.1155 103.822 97.2894 103.635C100.774 99.8932 125.518 96.1117 134.233 98.1156C135.031 98.2993 135.637 97.5127 135.131 96.9445C130.803 92.0781 122.246 90.0824 115.665 90.3927Z" fill="black" fill-opacity="0.6"/>
<path fill-rule="evenodd" clip-rule="evenodd" d="M191.443 90.3927C198.789 90.732 210.665 96.0679 210.359 103.473C210.349 103.715 209.993 103.822 209.819 103.635C206.334 99.8932 181.59 96.1117 172.875 98.1156C172.078 98.2993 171.472 97.5127 171.977 96.9445C176.306 92.0781 184.862 90.0824 191.443 90.3927Z" fill="black" fill-opacity="0.6"/>
<mask id="mask5" mask-type="alpha" maskUnits="userSpaceOnUse" x="-15" y="-22" width="335" height="355">
<path d="M319.899 -21.0759H-14.0553V333H319.899V-21.0759Z" fill="white"/>
</mask>
<g mask="url(#mask5)">
<mask id="mask6" mask-type="alpha" maskUnits="userSpaceOnUse" x="78" y="0" width="149" height="105">
<path d="M212.425 29.4057C208.934 25.8396 204.88 22.8128 200.938 19.7775C200.068 19.1084 199.184 18.4555 198.334 17.7609C198.14 17.6031 196.16 16.1852 195.923 15.6633C195.352 14.4079 195.683 15.3854 195.762 13.8873C195.861 11.9929 199.725 6.64228 196.842 5.41527C195.573 4.87559 193.311 6.31177 192.094 6.78611C189.714 7.71444 187.305 8.50614 184.844 9.1888C186.023 6.84085 188.27 2.14069 184.046 3.39867C180.755 4.37876 177.689 6.89855 174.382 8.08398C175.476 6.29098 179.852 0.735051 175.898 0.424479C174.667 0.327743 171.087 2.63497 169.762 3.12713C165.794 4.6015 161.741 5.55443 157.575 6.30498C143.41 8.85702 126.846 8.12938 113.74 14.5763C103.636 19.5463 93.6592 27.258 87.8225 37.0779C82.1969 46.5432 80.0928 56.9019 78.9153 67.7482C78.0513 75.7081 77.981 83.9361 78.3851 91.9248C78.5171 94.5422 78.8116 106.607 82.6153 102.954C84.5104 101.133 84.4965 93.7815 84.9737 91.2931C85.9236 86.3422 86.8379 81.3692 88.4216 76.5766C91.2124 68.1309 94.5046 64.1927 101.457 58.3758C105.919 54.6435 109.052 49.5988 113.321 45.8333C115.239 44.1421 113.776 44.3182 116.859 44.5401C118.931 44.689 121.012 44.7459 123.088 44.8002C127.889 44.9249 132.699 44.8931 137.502 44.9101C147.175 44.9449 156.803 45.0815 166.467 44.5753C170.761 44.3505 175.067 44.2287 179.351 43.8316C181.743 43.6097 185.989 42.0767 187.958 43.2482C189.761 44.3199 191.632 47.8194 192.927 49.2526C195.985 52.6396 199.63 55.2264 203.206 58.0037C210.662 63.7947 214.426 66.0099 216.691 75.0598C218.947 84.0761 218.314 92.441 221.107 101.314C221.598 102.874 222.898 105.563 224.499 103.153C224.797 102.705 224.72 100.244 224.72 98.8285C224.72 93.113 226.168 88.8246 226.15 83.0719C226.078 65.5805 225.513 42.7726 212.425 29.4057Z" fill="white"/>
</mask>
<g mask="url(#mask6)">
<path d="M212.425 29.4057C208.934 25.8396 204.88 22.8128 200.938 19.7775C200.068 19.1084 199.184 18.4555 198.334 17.7609C198.14 17.6031 196.16 16.1852 195.923 15.6633C195.352 14.4079 195.683 15.3854 195.762 13.8873C195.861 11.9929 199.725 6.64228 196.842 5.41527C195.573 4.87559 193.311 6.31177 192.094 6.78611C189.714 7.71444 187.305 8.50614 184.844 9.1888C186.023 6.84085 188.27 2.14069 184.046 3.39867C180.755 4.37876 177.689 6.89855 174.382 8.08398C175.476 6.29098 179.852 0.735051 175.898 0.424479C174.667 0.327743 171.087 2.63497 169.762 3.12713C165.794 4.6015 161.741 5.55443 157.575 6.30498C143.41 8.85702 126.846 8.12938 113.74 14.5763C103.636 19.5463 93.6592 27.258 87.8225 37.0779C82.1969 46.5432 80.0928 56.9019 78.9153 67.7482C78.0513 75.7081 77.981 83.9361 78.3851 91.9248C78.5171 94.5422 78.8116 106.607 82.6153 102.954C84.5104 101.133 84.4965 93.7815 84.9737 91.2931C85.9236 86.3422 86.8379 81.3692 88.4216 76.5766C91.2124 68.1309 94.5046 64.1927 101.457 58.3758C105.919 54.6435 109.052 49.5988 113.321 45.8333C115.239 44.1421 113.776 44.3182 116.859 44.5401C118.931 44.689 121.012 44.7459 123.088 44.8002C127.889 44.9249 132.699 44.8931 137.502 44.9101C147.175 44.9449 156.803 45.0815 166.467 44.5753C170.761 44.3505 175.067 44.2287 179.351 43.8316C181.743 43.6097 185.989 42.0767 187.958 43.2482C189.761 44.3199 191.632 47.8194 192.927 49.2526C195.985 52.6396 199.63 55.2264 203.206 58.0037C210.662 63.7947 214.426 66.0099 216.691 75.0598C218.947 84.0761 218.314 92.441 221.107 101.314C221.598 102.874 222.898 105.563 224.499 103.153C224.797 102.705 224.72 100.244 224.72 98.8285C224.72 93.113 226.168 88.8246 226.15 83.0719C226.078 65.5805 225.513 42.7726 212.425 29.4057Z" fill="#1F3140"/>
<path d="M321.876 -21.0759H-14.1958V333.571H321.876V-21.0759Z" fill="#4A312C"/>
</g>
</g>
</g>
</g>
<defs>
<clipPath id="clip0">
<rect width="305" height="333" fill="white"/>
</clipPath>
</defs>
</svg>
