<svg width="903" height="368" viewBox="0 0 903 368" fill="none" xmlns="http://www.w3.org/2000/svg">
<path fill-rule="evenodd" clip-rule="evenodd" d="M175.054 57.9982C175.054 52.4064 179.578 47.8839 185.182 47.8839H537.454C543.049 47.8839 547.583 52.4094 547.583 57.9982V298.993C547.583 304.585 543.059 309.107 537.454 309.107H185.182C179.588 309.107 175.054 304.582 175.054 298.993V57.9982Z" fill="#022752"/>
<path fill-rule="evenodd" clip-rule="evenodd" d="M185.182 48.9246C180.151 48.9246 176.095 52.9822 176.095 57.9982V298.993C176.095 304.006 180.161 308.067 185.182 308.067H537.454C542.485 308.067 546.542 304.009 546.542 298.993V57.9982C546.542 52.9857 542.476 48.9246 537.454 48.9246H185.182ZM174.013 57.9982C174.013 51.8307 179.004 46.8432 185.182 46.8432H537.454C543.622 46.8432 548.623 51.8332 548.623 57.9982V298.993C548.623 305.161 543.633 310.148 537.454 310.148H185.182C179.015 310.148 174.013 305.158 174.013 298.993V57.9982Z" fill="white"/>
<path fill-rule="evenodd" clip-rule="evenodd" d="M197.84 74.6228C197.84 72.2285 199.79 70.2848 202.183 70.2848H520.092C522.494 70.2848 524.435 72.2174 524.435 74.6228V254.187C524.435 256.581 522.485 258.525 520.092 258.525H202.183C199.781 258.525 197.84 256.592 197.84 254.187V74.6228Z" fill="#022752"/>
<path fill-rule="evenodd" clip-rule="evenodd" d="M202.183 71.3255C200.363 71.3255 198.881 72.8051 198.881 74.6228V254.187C198.881 256.015 200.354 257.484 202.183 257.484H520.092C521.912 257.484 523.394 256.004 523.394 254.187V74.6228C523.394 72.7944 521.921 71.3255 520.092 71.3255H202.183ZM196.799 74.6228C196.799 71.652 199.217 69.2441 202.183 69.2441H520.092C523.066 69.2441 525.476 71.6405 525.476 74.6228V254.187C525.476 257.158 523.058 259.565 520.092 259.565H202.183C199.209 259.565 196.799 257.169 196.799 254.187V74.6228Z" fill="white"/>
<path fill-rule="evenodd" clip-rule="evenodd" d="M334.79 309.107H388.208L391.815 355.716H331.184L334.79 309.107Z" fill="#022752"/>
<path fill-rule="evenodd" clip-rule="evenodd" d="M333.827 308.067H389.172L392.939 356.756H330.059L333.827 308.067ZM335.753 310.148L332.308 354.675H390.69L387.245 310.148H335.753Z" fill="white"/>
<path fill-rule="evenodd" clip-rule="evenodd" d="M308.874 365.836V360.955C308.874 358.066 311.222 355.716 314.111 355.716H408.887C411.771 355.716 414.125 358.066 414.125 360.955V365.836C414.125 366.038 413.968 366.193 413.761 366.193H309.237C309.035 366.193 308.874 366.033 308.874 365.836Z" fill="#022752"/>
<path fill-rule="evenodd" clip-rule="evenodd" d="M307.833 365.836C307.833 366.619 308.471 367.234 309.237 367.234H413.761C414.53 367.234 415.165 366.626 415.165 365.836V360.955C415.165 357.491 412.346 354.675 408.887 354.675H314.111C310.646 354.675 307.833 357.491 307.833 360.955V365.836ZM309.915 365.153V360.955C309.915 358.64 311.797 356.756 314.111 356.756H408.887C411.197 356.756 413.084 358.641 413.084 360.955V365.153H309.915Z" fill="white"/>
<path fill-rule="evenodd" clip-rule="evenodd" d="M361.499 280.16C358.378 280.16 355.849 282.687 355.849 285.803C355.849 288.919 358.378 291.447 361.499 291.447C364.621 291.447 367.15 288.919 367.15 285.803C367.15 282.687 364.621 280.16 361.499 280.16ZM353.767 285.803C353.767 281.536 357.23 278.078 361.499 278.078C365.768 278.078 369.231 281.536 369.231 285.803C369.231 290.07 365.768 293.528 361.499 293.528C357.23 293.528 353.767 290.071 353.767 285.803Z" fill="white"/>
<path d="M203.631 226.007H149.369C144.578 226.007 140.695 229.889 140.695 234.679V357.522C140.695 362.311 144.578 366.193 149.369 366.193H203.631C208.422 366.193 212.305 362.311 212.305 357.522V234.679C212.305 229.889 208.422 226.007 203.631 226.007Z" fill="#022752"/>
<path fill-rule="evenodd" clip-rule="evenodd" d="M149.369 227.048C145.153 227.048 141.735 230.465 141.735 234.679V357.522C141.735 361.736 145.153 365.153 149.369 365.153H203.631C207.847 365.153 211.265 361.736 211.265 357.522V234.679C211.265 230.465 207.847 227.048 203.631 227.048H149.369ZM139.654 234.679C139.654 229.314 144.004 224.966 149.369 224.966H203.631C208.996 224.966 213.346 229.314 213.346 234.679V357.522C213.346 362.886 208.996 367.234 203.631 367.234H149.369C144.004 367.234 139.654 362.886 139.654 357.522V234.679Z" fill="white"/>
<path fill-rule="evenodd" clip-rule="evenodd" d="M140.695 241.543H212.305V345.346H140.695V241.543Z" fill="#022752"/>
<path fill-rule="evenodd" clip-rule="evenodd" d="M139.654 240.503H213.346V346.387H139.654V240.503ZM141.735 242.584V344.305H211.265V242.584H141.735Z" fill="white"/>
<path d="M192.415 232.149H160.947C160.148 232.149 159.501 232.796 159.501 233.595C159.501 234.393 160.148 235.04 160.947 235.04H192.415C193.213 235.04 193.861 234.393 193.861 233.595C193.861 232.796 193.213 232.149 192.415 232.149Z" fill="white"/>
<path d="M176.647 351.38H176.642C174.366 351.38 172.521 353.224 172.521 355.499C172.521 357.774 174.366 359.618 176.642 359.618H176.647C178.923 359.618 180.768 357.774 180.768 355.499C180.768 353.224 178.923 351.38 176.647 351.38Z" fill="white"/>
<path d="M160.948 298.629C163.944 298.629 166.373 296.203 166.373 293.21C166.373 290.217 163.944 287.79 160.948 287.79C157.951 287.79 155.522 290.217 155.522 293.21C155.522 296.203 157.951 298.629 160.948 298.629Z" fill="#022752"/>
<path fill-rule="evenodd" clip-rule="evenodd" d="M160.948 288.831C158.525 288.831 156.563 290.793 156.563 293.21C156.563 295.627 158.525 297.589 160.948 297.589C163.37 297.589 165.332 295.627 165.332 293.21C165.332 290.793 163.37 288.831 160.948 288.831ZM154.482 293.21C154.482 289.641 157.378 286.75 160.948 286.75C164.518 286.75 167.414 289.641 167.414 293.21C167.414 296.779 164.518 299.67 160.948 299.67C157.378 299.67 154.482 296.779 154.482 293.21Z" fill="white"/>
<path d="M197.478 283.816H175.052C174.254 283.816 173.606 284.463 173.606 285.261C173.606 286.059 174.254 286.706 175.052 286.706H197.478C198.277 286.706 198.924 286.059 198.924 285.261C198.924 284.463 198.277 283.816 197.478 283.816Z" fill="white"/>
<path d="M190.245 291.765H175.052C174.254 291.765 173.606 292.412 173.606 293.21C173.606 294.008 174.254 294.655 175.052 294.655H190.245C191.043 294.655 191.69 294.008 191.69 293.21C191.69 292.412 191.043 291.765 190.245 291.765Z" fill="white"/>
<path d="M183.011 299.713H175.052C174.254 299.713 173.606 300.36 173.606 301.159C173.606 301.957 174.254 302.604 175.052 302.604H183.011C183.81 302.604 184.457 301.957 184.457 301.159C184.457 300.36 183.81 299.713 183.011 299.713Z" fill="white"/>
<path d="M103.983 293.932C134.645 293.932 159.502 269.102 159.502 238.472C159.502 207.842 134.645 183.012 103.983 183.012C73.3209 183.012 48.4642 207.842 48.4642 238.472C48.4642 269.102 73.3209 293.932 103.983 293.932Z" fill="#022752"/>
<path fill-rule="evenodd" clip-rule="evenodd" d="M103.983 184.053C73.8947 184.053 49.505 208.418 49.505 238.472C49.505 268.526 73.8947 292.892 103.983 292.892C134.072 292.892 158.461 268.526 158.461 238.472C158.461 208.418 134.072 184.053 103.983 184.053ZM47.4236 238.472C47.4236 207.267 72.7472 181.971 103.983 181.971C135.219 181.971 160.543 207.267 160.543 238.472C160.543 269.678 135.219 294.973 103.983 294.973C72.7472 294.973 47.4236 269.678 47.4236 238.472Z" fill="white"/>
<path d="M703.111 171.45H452.819C448.028 171.45 444.144 175.332 444.144 180.121V342.347C444.144 347.136 448.028 351.019 452.819 351.019H703.111C707.902 351.019 711.785 347.136 711.785 342.347V180.121C711.785 175.332 707.902 171.45 703.111 171.45Z" fill="#022752"/>
<path fill-rule="evenodd" clip-rule="evenodd" d="M452.819 172.491C448.602 172.491 445.185 175.908 445.185 180.121V342.347C445.185 346.561 448.602 349.978 452.819 349.978H703.111C707.327 349.978 710.745 346.561 710.745 342.347V180.121C710.745 175.908 707.327 172.491 703.111 172.491H452.819ZM443.103 180.121C443.103 174.757 447.453 170.409 452.819 170.409H703.111C708.476 170.409 712.826 174.757 712.826 180.121V342.347C712.826 347.712 708.476 352.059 703.111 352.059H452.819C447.453 352.059 443.103 347.712 443.103 342.347V180.121Z" fill="white"/>
<path fill-rule="evenodd" clip-rule="evenodd" d="M425.697 351.372V358.606C425.697 362.79 429.098 366.193 433.285 366.193H722.644C726.828 366.193 730.233 362.792 730.233 358.606V351.372C730.233 351.175 730.076 351.019 729.873 351.019H426.056C425.853 351.019 425.697 351.175 425.697 351.372Z" fill="#022752"/>
<path fill-rule="evenodd" clip-rule="evenodd" d="M424.656 351.372C424.656 350.587 425.292 349.978 426.056 349.978H729.873C730.636 349.978 731.274 350.586 731.274 351.372V358.606C731.274 363.367 727.402 367.234 722.644 367.234H433.285C428.523 367.234 424.656 363.365 424.656 358.606V351.372ZM426.737 352.059V358.606C426.737 362.215 429.673 365.153 433.285 365.153H722.644C726.254 365.153 729.192 362.217 729.192 358.606V352.059H426.737Z" fill="white"/>
<path fill-rule="evenodd" clip-rule="evenodd" d="M597.965 351.181L557.457 351.181C559.073 355.448 563.198 358.407 567.929 358.407H587.493C592.226 358.407 596.349 355.449 597.965 351.181Z" fill="#022752"/>
<path fill-rule="evenodd" clip-rule="evenodd" d="M555.95 350.14L599.472 350.141L598.938 351.55C597.172 356.214 592.666 359.447 587.494 359.447H567.929C562.757 359.447 558.251 356.214 556.484 351.549L555.95 350.14ZM559.093 352.221C560.852 355.319 564.181 357.366 567.929 357.366H587.494C591.242 357.366 594.57 355.319 596.33 352.222L559.093 352.221Z" fill="white"/>
<path d="M696.746 188.431H458.969C457.372 188.431 456.078 189.726 456.078 191.322V331.454C456.078 333.05 457.372 334.344 458.969 334.344H696.746C698.343 334.344 699.637 333.05 699.637 331.454V191.322C699.637 189.726 698.343 188.431 696.746 188.431Z" fill="#022752"/>
<path fill-rule="evenodd" clip-rule="evenodd" d="M458.969 189.472C457.947 189.472 457.118 190.301 457.118 191.322V331.454C457.118 332.475 457.947 333.304 458.969 333.304H696.746C697.768 333.304 698.597 332.475 698.597 331.454V191.322C698.597 190.301 697.768 189.472 696.746 189.472H458.969ZM455.037 191.322C455.037 189.15 456.798 187.391 458.969 187.391H696.746C698.917 187.391 700.678 189.15 700.678 191.322V331.454C700.678 333.625 698.917 335.385 696.746 335.385H458.969C456.798 335.385 455.037 333.625 455.037 331.454V191.322Z" fill="white"/>
<path d="M353.361 75.3431C354.36 75.3431 355.17 74.5343 355.17 73.5366C355.17 72.5388 354.36 71.73 353.361 71.73C352.363 71.73 351.553 72.5388 351.553 73.5366C351.553 74.5343 352.363 75.3431 353.361 75.3431Z" fill="white"/>
<path fill-rule="evenodd" clip-rule="evenodd" d="M249.922 20.7861H417.016V180.845C417.016 186.429 412.475 190.961 406.887 190.961H260.051C254.459 190.961 249.922 186.427 249.922 180.845V20.7861Z" fill="#022752"/>
<path fill-rule="evenodd" clip-rule="evenodd" d="M248.881 19.7453H418.057V180.845C418.057 187.005 413.048 192.001 406.887 192.001H260.051C253.886 192.001 248.881 187.003 248.881 180.845V19.7453ZM250.963 21.8268V180.845C250.963 185.851 255.033 189.92 260.051 189.92H406.887C411.901 189.92 415.976 185.853 415.976 180.845V21.8268H250.963Z" fill="white"/>
<path fill-rule="evenodd" clip-rule="evenodd" d="M249.922 12.8283C249.922 7.24837 254.464 2.72081 260.051 2.72081H406.887C412.481 2.72081 417.016 7.24352 417.016 12.8283V23.6765H249.922V12.8283Z" fill="#022752"/>
<path fill-rule="evenodd" clip-rule="evenodd" d="M260.051 3.76153C255.036 3.76153 250.963 7.82557 250.963 12.8283V22.6358H415.976V12.8283C415.976 7.82056 411.909 3.76153 406.887 3.76153H260.051ZM248.881 12.8283C248.881 6.67118 253.892 1.6801 260.051 1.6801H406.887C413.054 1.6801 418.057 6.6665 418.057 12.8283V24.7172H248.881V12.8283Z" fill="white"/>
<path d="M265.473 16.4504C267.271 16.4504 268.728 14.9945 268.728 13.1987C268.728 11.4028 267.271 9.94691 265.473 9.94691C263.676 9.94691 262.218 11.4028 262.218 13.1987C262.218 14.9945 263.676 16.4504 265.473 16.4504Z" fill="white"/>
<path d="M276.324 16.4504C278.121 16.4504 279.579 14.9945 279.579 13.1987C279.579 11.4028 278.121 9.94691 276.324 9.94691C274.526 9.94691 273.068 11.4028 273.068 13.1987C273.068 14.9945 274.526 16.4504 276.324 16.4504Z" fill="white"/>
<path d="M287.174 16.4504C288.972 16.4504 290.429 14.9945 290.429 13.1987C290.429 11.4028 288.972 9.94691 287.174 9.94691C285.376 9.94691 283.919 11.4028 283.919 13.1987C283.919 14.9945 285.376 16.4504 287.174 16.4504Z" fill="white"/>
<path d="M275.239 126.287H271.621C270.822 126.287 270.175 126.934 270.175 127.732C270.175 128.53 270.822 129.178 271.621 129.178H275.239C276.038 129.178 276.685 128.53 276.685 127.732C276.685 126.934 276.038 126.287 275.239 126.287Z" fill="white"/>
<path d="M275.239 54.0261H271.621C270.822 54.0261 270.175 54.6731 270.175 55.4713C270.175 56.2695 270.822 56.9165 271.621 56.9165H275.239C276.038 56.9165 276.685 56.2695 276.685 55.4713C276.685 54.6731 276.038 54.0261 275.239 54.0261Z" fill="white"/>
<path fill-rule="evenodd" clip-rule="evenodd" d="M282.471 54.0261H292.239C293.037 54.0261 293.684 54.6731 293.684 55.4713C293.684 56.2695 293.037 56.9165 292.239 56.9165H282.471C281.673 56.9165 281.026 56.2695 281.026 55.4713C281.026 54.6731 281.673 54.0261 282.471 54.0261Z" fill="white"/>
<path fill-rule="evenodd" clip-rule="evenodd" d="M298.747 54.0261H308.514C309.313 54.0261 309.96 54.6731 309.96 55.4713C309.96 56.2695 309.313 56.9165 308.514 56.9165H298.747C297.948 56.9165 297.301 56.2695 297.301 55.4713C297.301 54.6731 297.948 54.0261 298.747 54.0261Z" fill="white"/>
<path fill-rule="evenodd" clip-rule="evenodd" d="M315.022 54.0261H333.108C333.907 54.0261 334.554 54.6731 334.554 55.4713C334.554 56.2695 333.907 56.9165 333.108 56.9165H315.022C314.224 56.9165 313.577 56.2695 313.577 55.4713C313.577 54.6731 314.224 54.0261 315.022 54.0261Z" fill="white"/>
<path fill-rule="evenodd" clip-rule="evenodd" d="M339.617 54.0261H366.383C367.181 54.0261 367.829 54.6731 367.829 55.4713C367.829 56.2695 367.181 56.9165 366.383 56.9165H339.617C338.818 56.9165 338.171 56.2695 338.171 55.4713C338.171 54.6731 338.818 54.0261 339.617 54.0261Z" fill="white"/>
<path d="M275.239 68.4783H271.621C270.822 68.4783 270.175 69.1253 270.175 69.9235C270.175 70.7217 270.822 71.3687 271.621 71.3687H275.239C276.038 71.3687 276.685 70.7217 276.685 69.9235C276.685 69.1253 276.038 68.4783 275.239 68.4783Z" fill="white"/>
<path d="M275.239 82.9305H271.621C270.822 82.9305 270.175 83.5775 270.175 84.3757C270.175 85.1739 270.822 85.8209 271.621 85.8209H275.239C276.038 85.8209 276.685 85.1739 276.685 84.3757C276.685 83.5775 276.038 82.9305 275.239 82.9305Z" fill="white"/>
<path d="M275.239 97.3827H271.621C270.822 97.3827 270.175 98.0297 270.175 98.8279C270.175 99.6261 270.822 100.273 271.621 100.273H275.239C276.038 100.273 276.685 99.6261 276.685 98.8279C276.685 98.0297 276.038 97.3827 275.239 97.3827Z" fill="white"/>
<path d="M275.239 111.835H271.621C270.822 111.835 270.175 112.482 270.175 113.28C270.175 114.078 270.822 114.725 271.621 114.725H275.239C276.038 114.725 276.685 114.078 276.685 113.28C276.685 112.482 276.038 111.835 275.239 111.835Z" fill="white"/>
<path d="M275.239 140.739H271.621C270.822 140.739 270.175 141.386 270.175 142.184C270.175 142.983 270.822 143.63 271.621 143.63H275.239C276.038 143.63 276.685 142.983 276.685 142.184C276.685 141.386 276.038 140.739 275.239 140.739Z" fill="white"/>
<path d="M275.239 155.191H271.621C270.822 155.191 270.175 155.839 270.175 156.637C270.175 157.435 270.822 158.082 271.621 158.082H275.239C276.038 158.082 276.685 157.435 276.685 156.637C276.685 155.839 276.038 155.191 275.239 155.191Z" fill="white"/>
<path d="M304.897 68.4783H282.471C281.673 68.4783 281.026 69.1253 281.026 69.9235C281.026 70.7217 281.673 71.3687 282.471 71.3687H304.897C305.696 71.3687 306.343 70.7217 306.343 69.9235C306.343 69.1253 305.696 68.4783 304.897 68.4783Z" fill="white"/>
<path d="M351.916 68.4783H311.406C310.607 68.4783 309.96 69.1253 309.96 69.9235C309.96 70.7217 310.607 71.3687 311.406 71.3687H351.916C352.714 71.3687 353.361 70.7217 353.361 69.9235C353.361 69.1253 352.714 68.4783 351.916 68.4783Z" fill="white"/>
<path d="M373.616 68.4783H358.424C357.626 68.4783 356.978 69.1253 356.978 69.9235C356.978 70.7217 357.626 71.3687 358.424 71.3687H373.616C374.415 71.3687 375.062 70.7217 375.062 69.9235C375.062 69.1253 374.415 68.4783 373.616 68.4783Z" fill="white"/>
<path d="M297.664 82.9305H282.471C281.673 82.9305 281.026 83.5775 281.026 84.3757C281.026 85.1739 281.673 85.8209 282.471 85.8209H297.664C298.462 85.8209 299.109 85.1739 299.109 84.3757C299.109 83.5775 298.462 82.9305 297.664 82.9305Z" fill="white"/>
<path d="M319.365 82.9305H304.172C303.374 82.9305 302.726 83.5775 302.726 84.3757C302.726 85.1739 303.374 85.8209 304.172 85.8209H319.365C320.163 85.8209 320.81 85.1739 320.81 84.3757C320.81 83.5775 320.163 82.9305 319.365 82.9305Z" fill="white"/>
<path d="M333.832 82.9305H325.873C325.074 82.9305 324.427 83.5775 324.427 84.3757C324.427 85.1739 325.074 85.8209 325.873 85.8209H333.832C334.63 85.8209 335.277 85.1739 335.277 84.3757C335.277 83.5775 334.63 82.9305 333.832 82.9305Z" fill="white"/>
<path d="M315.748 97.3827H282.471C281.673 97.3827 281.026 98.0297 281.026 98.8279C281.026 99.6261 281.673 100.273 282.471 100.273H315.748C316.546 100.273 317.194 99.6261 317.194 98.8279C317.194 98.0297 316.546 97.3827 315.748 97.3827Z" fill="white"/>
<path d="M344.682 97.3827H322.256C321.458 97.3827 320.81 98.0297 320.81 98.8279C320.81 99.6261 321.458 100.273 322.256 100.273H344.682C345.481 100.273 346.128 99.6261 346.128 98.8279C346.128 98.0297 345.481 97.3827 344.682 97.3827Z" fill="white"/>
<path d="M315.748 111.835H282.471C281.673 111.835 281.026 112.482 281.026 113.28C281.026 114.078 281.673 114.725 282.471 114.725H315.748C316.546 114.725 317.194 114.078 317.194 113.28C317.194 112.482 316.546 111.835 315.748 111.835Z" fill="white"/>
<path d="M366.383 111.835H322.256C321.458 111.835 320.81 112.482 320.81 113.28C320.81 114.078 321.458 114.725 322.256 114.725H366.383C367.181 114.725 367.829 114.078 367.829 113.28C367.829 112.482 367.181 111.835 366.383 111.835Z" fill="white"/>
<path d="M304.897 126.287H282.471C281.673 126.287 281.026 126.934 281.026 127.732C281.026 128.53 281.673 129.178 282.471 129.178H304.897C305.696 129.178 306.343 128.53 306.343 127.732C306.343 126.934 305.696 126.287 304.897 126.287Z" fill="white"/>
<path d="M333.832 126.287H311.406C310.607 126.287 309.96 126.934 309.96 127.732C309.96 128.53 310.607 129.178 311.406 129.178H333.832C334.63 129.178 335.277 128.53 335.277 127.732C335.277 126.934 334.63 126.287 333.832 126.287Z" fill="white"/>
<path d="M351.916 126.287H340.34C339.542 126.287 338.894 126.934 338.894 127.732C338.894 128.53 339.542 129.178 340.34 129.178H351.916C352.714 129.178 353.361 128.53 353.361 127.732C353.361 126.934 352.714 126.287 351.916 126.287Z" fill="white"/>
<path d="M326.598 140.739H282.471C281.673 140.739 281.026 141.386 281.026 142.184C281.026 142.983 281.673 143.63 282.471 143.63H326.598C327.397 143.63 328.044 142.983 328.044 142.184C328.044 141.386 327.397 140.739 326.598 140.739Z" fill="white"/>
<path d="M301.281 155.191H282.471C281.673 155.191 281.026 155.839 281.026 156.637C281.026 157.435 281.673 158.082 282.471 158.082H301.281C302.079 158.082 302.726 157.435 302.726 156.637C302.726 155.839 302.079 155.191 301.281 155.191Z" fill="white"/>
<path fill-rule="evenodd" clip-rule="evenodd" d="M576.519 134.236H774.718V275.157C774.718 280.739 770.189 285.261 764.596 285.261H586.641C581.054 285.261 576.519 280.732 576.519 275.157V134.236Z" fill="#022752"/>
<path fill-rule="evenodd" clip-rule="evenodd" d="M575.478 133.195H775.758V275.157C775.758 281.316 770.762 286.302 764.596 286.302H586.641C580.481 286.302 575.478 281.308 575.478 275.157V133.195ZM577.56 135.276V275.157C577.56 280.155 581.627 284.22 586.641 284.22H764.596C769.616 284.22 773.677 280.163 773.677 275.157V135.276H577.56Z" fill="white"/>
<path fill-rule="evenodd" clip-rule="evenodd" d="M576.519 126.278C576.519 120.694 581.048 116.171 586.641 116.171H764.596C770.187 116.171 774.718 120.694 774.718 126.278V137.126H576.519V126.278Z" fill="#022752"/>
<path fill-rule="evenodd" clip-rule="evenodd" d="M586.641 117.211C581.621 117.211 577.56 121.27 577.56 126.278V136.086H773.677V126.278C773.677 121.27 769.613 117.211 764.596 117.211H586.641ZM575.478 126.278C575.478 120.118 580.474 115.13 586.641 115.13H764.596C770.76 115.13 775.758 120.117 775.758 126.278V138.167H575.478V126.278Z" fill="white"/>
<path d="M592.07 129.9C593.868 129.9 595.325 128.444 595.325 126.648C595.325 124.852 593.868 123.397 592.07 123.397C590.273 123.397 588.815 124.852 588.815 126.648C588.815 128.444 590.273 129.9 592.07 129.9Z" fill="white"/>
<path d="M602.921 129.9C604.718 129.9 606.176 128.444 606.176 126.648C606.176 124.852 604.718 123.397 602.921 123.397C601.123 123.397 599.666 124.852 599.666 126.648C599.666 128.444 601.123 129.9 602.921 129.9Z" fill="white"/>
<path d="M613.771 129.9C615.569 129.9 617.026 128.444 617.026 126.648C617.026 124.852 615.569 123.397 613.771 123.397C611.973 123.397 610.516 124.852 610.516 126.648C610.516 128.444 611.973 129.9 613.771 129.9Z" fill="white"/>
<path d="M699.128 245.879C719.103 245.879 735.296 229.703 735.296 209.748C735.296 189.794 719.103 173.618 699.128 173.618C679.153 173.618 662.96 189.794 662.96 209.748C662.96 229.703 679.153 245.879 699.128 245.879Z" fill="#022752"/>
<path fill-rule="evenodd" clip-rule="evenodd" d="M699.128 174.789C679.798 174.789 664.13 190.442 664.13 209.748C664.13 229.055 679.798 244.708 699.128 244.708C718.457 244.708 734.125 229.055 734.125 209.748C734.125 190.442 718.457 174.789 699.128 174.789ZM661.789 209.748C661.789 189.146 678.507 172.447 699.128 172.447C719.748 172.447 736.466 189.146 736.466 209.748C736.466 230.351 719.748 247.05 699.128 247.05C678.507 247.05 661.789 230.351 661.789 209.748Z" fill="white"/>
<path fill-rule="evenodd" clip-rule="evenodd" d="M695.148 169.282V177.954H703.83V169.282H695.148Z" fill="#022752"/>
<path fill-rule="evenodd" clip-rule="evenodd" d="M694.107 168.242H704.871V178.994H694.107V168.242ZM696.189 170.323V176.913H702.79V170.323H696.189Z" fill="white"/>
<path fill-rule="evenodd" clip-rule="evenodd" d="M694.786 241.543V250.215H703.469V241.543H694.786Z" fill="#022752"/>
<path fill-rule="evenodd" clip-rule="evenodd" d="M693.746 240.503H704.509V251.255H693.746V240.503ZM695.827 242.584V249.174H702.428V242.584H695.827Z" fill="white"/>
<path fill-rule="evenodd" clip-rule="evenodd" d="M658.618 205.774V214.445H667.301V205.774H658.618Z" fill="#022752"/>
<path fill-rule="evenodd" clip-rule="evenodd" d="M657.578 204.733H668.341V215.486H657.578V204.733ZM659.659 206.815V213.405H666.26V206.815H659.659Z" fill="white"/>
<path fill-rule="evenodd" clip-rule="evenodd" d="M730.593 205.774V214.445H739.275V205.774H730.593Z" fill="#022752"/>
<path fill-rule="evenodd" clip-rule="evenodd" d="M729.552 204.733H740.316V215.486H729.552V204.733ZM731.633 206.815V213.405H738.234V206.815H731.633Z" fill="white"/>
<path fill-rule="evenodd" clip-rule="evenodd" d="M736.336 176.19V205.37H734.255V176.19H736.336Z" fill="white"/>
<path fill-rule="evenodd" clip-rule="evenodd" d="M736.336 214.127V243.307H734.255V214.127H736.336Z" fill="white"/>
<path d="M735.296 180.483C737.693 180.483 739.636 178.542 739.636 176.147C739.636 173.753 737.693 171.811 735.296 171.811C732.899 171.811 730.955 173.753 730.955 176.147C730.955 178.542 732.899 180.483 735.296 180.483Z" fill="white"/>
<path d="M735.296 249.131C737.693 249.131 739.636 247.19 739.636 244.795C739.636 242.401 737.693 240.459 735.296 240.459C732.899 240.459 730.955 242.401 730.955 244.795C730.955 247.19 732.899 249.131 735.296 249.131Z" fill="white"/>
<path d="M630.05 166.031H616.299C613.904 166.031 611.962 167.972 611.962 170.366V184.096C611.962 186.49 613.904 188.431 616.299 188.431H630.05C632.446 188.431 634.388 186.49 634.388 184.096V170.366C634.388 167.972 632.446 166.031 630.05 166.031Z" fill="#022752"/>
<path fill-rule="evenodd" clip-rule="evenodd" d="M616.299 167.071C614.478 167.071 613.002 168.547 613.002 170.366V184.096C613.002 185.915 614.478 187.391 616.299 187.391H630.05C631.872 187.391 633.347 185.915 633.347 184.096V170.366C633.347 168.547 631.872 167.071 630.05 167.071H616.299ZM610.921 170.366C610.921 167.397 613.329 164.99 616.299 164.99H630.05C633.02 164.99 635.429 167.397 635.429 170.366V184.096C635.429 187.066 633.02 189.472 630.05 189.472H616.299C613.329 189.472 610.921 187.065 610.921 184.096V170.366Z" fill="white"/>
<path d="M630.05 198.548H616.299C613.904 198.548 611.962 200.489 611.962 202.884V216.613C611.962 219.008 613.904 220.949 616.299 220.949H630.05C632.446 220.949 634.388 219.008 634.388 216.613V202.884C634.388 200.489 632.446 198.548 630.05 198.548Z" fill="#022752"/>
<path fill-rule="evenodd" clip-rule="evenodd" d="M616.299 199.589C614.478 199.589 613.002 201.064 613.002 202.884V216.613C613.002 218.433 614.478 219.908 616.299 219.908H630.05C631.872 219.908 633.347 218.433 633.347 216.613V202.884C633.347 201.064 631.872 199.589 630.05 199.589H616.299ZM610.921 202.884C610.921 199.914 613.329 197.507 616.299 197.507H630.05C633.02 197.507 635.429 199.914 635.429 202.884V216.613C635.429 219.583 633.02 221.99 630.05 221.99H616.299C613.329 221.99 610.921 219.583 610.921 216.613V202.884Z" fill="white"/>
<path d="M630.05 231.065H616.299C613.904 231.065 611.962 233.007 611.962 235.401V249.131C611.962 251.525 613.904 253.466 616.299 253.466H630.05C632.446 253.466 634.388 251.525 634.388 249.131V235.401C634.388 233.007 632.446 231.065 630.05 231.065Z" fill="#022752"/>
<path fill-rule="evenodd" clip-rule="evenodd" d="M616.299 232.106C614.478 232.106 613.002 233.582 613.002 235.401V249.131C613.002 250.95 614.478 252.426 616.299 252.426H630.05C631.872 252.426 633.347 250.95 633.347 249.131V235.401C633.347 233.582 631.872 232.106 630.05 232.106H616.299ZM610.921 235.401C610.921 232.431 613.329 230.025 616.299 230.025H630.05C633.02 230.025 635.429 232.431 635.429 235.401V249.131C635.429 252.1 633.02 254.507 630.05 254.507H616.299C613.329 254.507 610.921 252.1 610.921 249.131V235.401Z" fill="white"/>
<path d="M878.521 353.548C890.506 353.548 900.222 343.842 900.222 331.87C900.222 319.897 890.506 310.191 878.521 310.191C866.536 310.191 856.82 319.897 856.82 331.87C856.82 343.842 866.536 353.548 878.521 353.548Z" fill="#022752"/>
<path fill-rule="evenodd" clip-rule="evenodd" d="M878.521 311.232C867.11 311.232 857.861 320.473 857.861 331.87C857.861 343.266 867.11 352.507 878.521 352.507C889.932 352.507 899.181 343.266 899.181 331.87C899.181 320.473 889.932 311.232 878.521 311.232ZM855.779 331.87C855.779 319.321 865.962 309.151 878.521 309.151C891.08 309.151 901.262 319.321 901.262 331.87C901.262 344.418 891.08 354.589 878.521 354.589C865.962 354.589 855.779 344.418 855.779 331.87Z" fill="white"/>
<path d="M878.521 344.515C885.512 344.515 891.18 338.853 891.18 331.869C891.18 324.885 885.512 319.224 878.521 319.224C871.53 319.224 865.862 324.885 865.862 331.869C865.862 338.853 871.53 344.515 878.521 344.515Z" fill="#022752"/>
<path fill-rule="evenodd" clip-rule="evenodd" d="M878.521 320.265C872.103 320.265 866.903 325.461 866.903 331.869C866.903 338.278 872.103 343.474 878.521 343.474C884.938 343.474 890.139 338.278 890.139 331.869C890.139 325.461 884.938 320.265 878.521 320.265ZM864.821 331.869C864.821 324.31 870.956 318.183 878.521 318.183C886.086 318.183 892.22 324.31 892.22 331.869C892.22 339.429 886.086 345.556 878.521 345.556C870.956 345.556 864.821 339.429 864.821 331.869Z" fill="white"/>
<path d="M849.586 306.217C853.581 306.217 856.82 302.982 856.82 298.991C856.82 295 853.581 291.765 849.586 291.765C845.591 291.765 842.353 295 842.353 298.991C842.353 302.982 845.591 306.217 849.586 306.217Z" fill="#022752"/>
<path fill-rule="evenodd" clip-rule="evenodd" d="M849.586 292.805C846.165 292.805 843.393 295.576 843.393 298.991C843.393 302.406 846.165 305.176 849.586 305.176C853.008 305.176 855.779 302.406 855.779 298.991C855.779 295.576 853.008 292.805 849.586 292.805ZM841.312 298.991C841.312 294.424 845.018 290.724 849.586 290.724C854.155 290.724 857.861 294.424 857.861 298.991C857.861 303.557 854.155 307.258 849.586 307.258C845.018 307.258 841.312 303.557 841.312 298.991Z" fill="white"/>
<path fill-rule="evenodd" clip-rule="evenodd" d="M817.757 297.184C816.958 297.184 816.311 297.831 816.311 298.629V359.329C816.311 363.32 819.548 366.555 823.54 366.555H873.437C877.43 366.555 880.667 363.32 880.667 359.329V298.629C880.667 297.831 880.019 297.184 879.221 297.184H817.757Z" fill="#022752"/>
<path fill-rule="evenodd" clip-rule="evenodd" d="M815.27 298.629C815.27 297.256 816.384 296.143 817.757 296.143H879.221C880.594 296.143 881.707 297.256 881.707 298.629V359.329C881.707 363.895 878.004 367.595 873.437 367.595H823.54C818.973 367.595 815.27 363.895 815.27 359.329V298.629ZM817.757 298.225C817.533 298.225 817.352 298.406 817.352 298.629V359.329C817.352 362.744 820.122 365.514 823.54 365.514H873.437C876.855 365.514 879.626 362.744 879.626 359.329V298.629C879.626 298.406 879.445 298.225 879.221 298.225H817.757Z" fill="white"/>
<path d="M861.526 316.695H851.391C848.996 316.695 847.054 318.636 847.054 321.03V335.483C847.054 337.877 848.996 339.818 851.391 339.818H861.526C863.921 339.818 865.863 337.877 865.863 335.483V321.03C865.863 318.636 863.921 316.695 861.526 316.695Z" fill="#022752"/>
<path fill-rule="evenodd" clip-rule="evenodd" d="M851.391 317.735C849.57 317.735 848.094 319.211 848.094 321.03V335.483C848.094 337.302 849.57 338.777 851.391 338.777H861.526C863.347 338.777 864.822 337.302 864.822 335.483V321.03C864.822 319.211 863.347 317.735 861.526 317.735H851.391ZM846.013 321.03C846.013 318.061 848.421 315.654 851.391 315.654H861.526C864.495 315.654 866.904 318.061 866.904 321.03V335.483C866.904 338.452 864.495 340.859 861.526 340.859H851.391C848.421 340.859 846.013 338.452 846.013 335.483V321.03Z" fill="white"/>
<path fill-rule="evenodd" clip-rule="evenodd" d="M857.318 296.685V315.206H855.237V296.685H857.318Z" fill="white"/>
<path fill-rule="evenodd" clip-rule="evenodd" d="M775.08 366.193C787.065 366.193 796.781 366.193 796.781 366.193C796.781 354.221 787.065 344.515 775.08 344.515C763.095 344.515 753.38 354.221 753.38 366.193C753.38 366.193 763.095 366.193 775.08 366.193Z" fill="#022752"/>
<path fill-rule="evenodd" clip-rule="evenodd" d="M752.339 366.193C752.339 353.645 762.522 343.474 775.08 343.474C787.639 343.474 797.822 353.645 797.822 366.193V367.234H796.781V366.193C796.781 367.234 796.781 367.234 796.781 367.234H753.381C753.381 367.234 753.38 367.234 753.38 366.193L753.381 367.234H752.339V366.193ZM754.446 365.153H795.715C795.172 354.239 786.142 345.556 775.08 345.556C764.019 345.556 754.989 354.239 754.446 365.153Z" fill="white"/>
<path d="M776.527 345.239C776.527 344.44 775.879 343.793 775.08 343.793C774.281 343.793 773.634 344.44 773.634 345.239V347.043C773.634 347.842 774.281 348.49 775.08 348.49C775.879 348.49 776.527 347.842 776.527 347.043V345.239Z" fill="white"/>
<path fill-rule="evenodd" clip-rule="evenodd" d="M22.7716 323.559C10.9937 323.559 1.44592 333.103 1.44592 344.876C1.44592 356.65 10.9937 366.194 22.7716 366.194H110.315C111.513 366.194 112.484 365.223 112.484 364.026V360.671C112.484 359.154 111.31 357.895 109.797 357.788C99.8586 357.082 94.5797 352.718 94.5797 344.876C94.5797 337.035 99.8586 332.671 109.797 331.965C111.31 331.858 112.484 330.599 112.484 329.082V325.727C112.484 324.53 111.513 323.559 110.315 323.559H22.7716Z" fill="#022752"/>
<path fill-rule="evenodd" clip-rule="evenodd" d="M0.405151 344.876C0.405151 332.528 10.4193 322.519 22.7715 322.519H110.315C112.087 322.519 113.524 323.955 113.524 325.727V329.082C113.524 331.146 111.929 332.857 109.87 333.003C105.019 333.348 101.462 334.577 99.132 336.541C96.8405 338.472 95.6203 341.212 95.6203 344.876C95.6203 348.541 96.8405 351.281 99.132 353.212C101.462 355.176 105.019 356.405 109.87 356.749C111.929 356.896 113.524 358.607 113.524 360.671V364.026C113.524 365.798 112.087 367.234 110.315 367.234H22.7715C10.4193 367.234 0.405151 357.225 0.405151 344.876ZM22.7715 324.6C11.5681 324.6 2.48658 333.678 2.48658 344.876C2.48658 356.074 11.5681 365.153 22.7715 365.153H110.315C110.938 365.153 111.443 364.648 111.443 364.026V360.671C111.443 359.7 110.692 358.894 109.723 358.826C104.636 358.465 100.585 357.159 97.7906 354.804C94.9582 352.416 93.5389 349.054 93.5389 344.876C93.5389 340.699 94.9582 337.337 97.7906 334.949C100.585 332.594 104.636 331.288 109.723 330.927C110.692 330.858 111.443 330.053 111.443 329.082V325.727C111.443 325.105 110.938 324.6 110.315 324.6H22.7715Z" fill="white"/>
<path fill-rule="evenodd" clip-rule="evenodd" d="M22.4242 331.465C15.0079 331.465 8.99769 337.471 8.99769 344.876C8.99769 352.282 15.0079 358.288 22.4242 358.288H110.764C110.54 358.288 110.357 358.469 110.357 358.695H112.438C112.438 359.621 111.687 360.369 110.764 360.369H22.4242C13.8604 360.369 6.91626 353.434 6.91626 344.876C6.91626 336.319 13.8604 329.384 22.4242 329.384H110.764C111.687 329.384 112.438 330.132 112.438 331.057H110.357C110.357 331.284 110.54 331.465 110.764 331.465H22.4242Z" fill="white"/>
<path d="M94.0378 338.734H20.9766C20.1781 338.734 19.5308 339.381 19.5308 340.18C19.5308 340.978 20.1781 341.625 20.9766 341.625H94.0378C94.8363 341.625 95.4836 340.978 95.4836 340.18C95.4836 339.381 94.8363 338.734 94.0378 338.734Z" fill="white"/>
<path d="M94.0378 347.767H20.9766C20.1781 347.767 19.5308 348.414 19.5308 349.212C19.5308 350.01 20.1781 350.657 20.9766 350.657H94.0378C94.8363 350.657 95.4836 350.01 95.4836 349.212C95.4836 348.414 94.8363 347.767 94.0378 347.767Z" fill="white"/>
<path d="M90.4758 251.427C88.7009 249.851 86.9259 248.275 85.1509 246.698C82.3223 244.189 79.5018 241.672 76.6732 239.162C76.0248 238.591 75.3764 238.012 74.7361 237.441C74.7361 238.197 74.7361 238.961 74.7361 239.717C76.5111 238.141 78.2861 236.564 80.061 234.988C82.8896 232.479 85.7102 229.961 88.5388 227.452C89.1872 226.881 89.8355 226.302 90.4758 225.731C91.108 225.168 91.0999 224.018 90.4758 223.455C89.8031 222.835 88.863 222.852 88.1821 223.455C86.4072 225.031 84.6322 226.608 82.8572 228.184C80.0286 230.693 77.2081 233.211 74.3795 235.72C73.7311 236.291 73.0827 236.87 72.4424 237.441C71.8183 237.996 71.8183 239.162 72.4424 239.717C74.2174 241.294 75.9924 242.87 77.7673 244.446C80.596 246.956 83.4165 249.473 86.2451 251.982C86.8935 252.553 87.5419 253.132 88.1821 253.704C88.8143 254.267 89.8599 254.371 90.4758 253.704C91.0432 253.092 91.1485 252.031 90.4758 251.427Z" fill="white"/>
<path d="M117.505 225.735C119.28 227.311 121.055 228.887 122.83 230.464C125.658 232.973 128.479 235.491 131.307 238C131.956 238.571 132.604 239.15 133.245 239.721C133.245 238.965 133.245 238.201 133.245 237.445C131.47 239.021 129.695 240.598 127.92 242.174C125.091 244.683 122.27 247.201 119.442 249.71C118.793 250.281 118.145 250.86 117.505 251.431C116.873 251.994 116.881 253.144 117.505 253.707C118.178 254.327 119.118 254.311 119.798 253.707C121.573 252.131 123.348 250.555 125.123 248.978C127.952 246.469 130.773 243.952 133.601 241.442C134.25 240.871 134.898 240.292 135.538 239.721C136.162 239.166 136.162 238 135.538 237.445C133.763 235.869 131.988 234.292 130.213 232.716C127.385 230.206 124.564 227.689 121.736 225.18C121.087 224.609 120.439 224.03 119.798 223.459C119.166 222.896 118.121 222.791 117.505 223.459C116.937 224.07 116.832 225.132 117.505 225.735Z" fill="white"/>
<path d="M98.21 260.899C98.6963 259.451 99.1745 258.004 99.6608 256.548C100.82 253.065 101.979 249.591 103.138 246.108C104.532 241.91 105.926 237.72 107.328 233.522C108.536 229.894 109.743 226.267 110.951 222.64C111.526 220.878 112.175 219.125 112.71 217.34C112.718 217.315 112.726 217.291 112.734 217.267C113.001 216.471 112.426 215.474 111.599 215.289C110.708 215.088 109.889 215.554 109.605 216.415C109.119 217.862 108.641 219.31 108.155 220.766C106.996 224.248 105.837 227.723 104.678 231.205C103.284 235.404 101.89 239.594 100.487 243.792C99.2798 247.419 98.0722 251.047 96.8646 254.674C96.2891 256.427 95.6407 258.181 95.1058 259.966C95.0977 259.99 95.0896 260.014 95.0815 260.039C94.814 260.835 95.3895 261.832 96.2162 262.017C97.1077 262.218 97.9263 261.752 98.21 260.899Z" fill="white"/>
</svg>
